#!OML:ASF X:\für Bonn\!DataBase\2005_08_11_Bastian_Final\c3d\Bastian.ASF
:FULLY-SPECIFIED
:DEGREES
1274
root -1.16956 17.0476 -5.99131 152.477 72.7447 -199.837
lowerback 8.31178 -10.1224 10.1265
upperback 4.3394 -11.687 9.15937
thorax -0.0695919 -5.39481 5.12661
lowerneck -4.34977 15.8415 1.54913
upperneck 0.197217 21.6923 -11.1776
head 2.34163 10.8126 -2.88612
rclavicle -1.59028e-014 -1.01778e-013
rhumerus -18.1354 13.3186 -42.7652
rradius 94.6021
rwrist -199.141
rhand -16.983 -6.67298
rfingers 7.12502
rthumb 9.25172 -36.45
lclavicle -1.59028e-014 -1.01778e-013
lhumerus 14.411 -24.3514 30.0391
lradius 88.242
lwrist 199.053
lhand -18.1015 33.5656
lfingers 7.12502
lthumb 8.17233 63.3876
rfemur -4.30319 4.15937 -1.15756
rtibia 36.9228
rfoot -21.4983 3.08575
rtoes -27.24
lfemur 4.2574 6.56598 -2.82883
ltibia 16.2915
lfoot 6.53379 12.6233
ltoes -29.5069
1275
root -1.17309 17.0232 -6.09944 152.402 72.9222 -199.91
lowerback 8.1742 -10.2405 10.1627
upperback 4.33145 -11.8463 9.34082
thorax 0.0338057 -5.46819 5.29279
lowerneck -4.31773 15.8657 1.72469
upperneck 0.224816 21.7445 -11.4888
head 2.41431 10.8377 -3.00224
rclavicle -6.44062e-014 1.01778e-013
rhumerus -18.1772 13.0483 -40.7996
rradius 93.4684
rwrist -199.877
rhand -17.8897 -5.19099
rfingers 7.12502
rthumb 8.37677 -35.0049
lclavicle -6.44062e-014 1.01778e-013
lhumerus 13.3605 -23.8457 28.6315
lradius 85.9912
lwrist 198.25
lhand -17.5835 34.1238
lfingers 7.12502
lthumb 8.67227 63.9256
rfemur -4.22328 4.45648 -1.46839
rtibia 36.7746
rfoot -21.4533 3.08883
rtoes -27.2899
lfemur 4.14638 6.88532 -2.68357
ltibia 16.8147
lfoot 6.08086 12.1449
ltoes -30.8294
1276
root -1.17558 16.998 -6.20908 152.364 73.0725 -199.955
lowerback 8.02029 -10.3775 10.1763
upperback 4.30901 -12.0344 9.52944
thorax 0.138519 -5.55721 5.47863
lowerneck -4.2448 15.8975 1.88284
upperneck 0.235197 21.8085 -11.8206
head 2.47638 10.871 -3.12652
rclavicle -4.13472e-014 3.49861e-014
rhumerus -18.2164 12.7862 -38.8413
rradius 92.3475
rwrist -200.531
rhand -18.7431 -4.04061
rfingers 7.12502
rthumb 7.55308 -33.8857
lclavicle -4.13472e-014 3.49861e-014
lhumerus 12.1284 -23.4479 27.3215
lradius 83.4773
lwrist 197.43
lhand -16.551 34.4902
lfingers 7.12502
lthumb 9.66853 64.2483
rfemur -4.14225 4.72044 -1.78481
rtibia 36.622
rfoot -21.4049 3.04348
rtoes -27.5655
lfemur 3.9894 7.24984 -2.56068
ltibia 17.419
lfoot 5.5693 11.5711
ltoes -32.265
1277
root -1.1782 16.9716 -6.32132 152.628 73.246 -199.696
lowerback 7.85342 -10.5422 10.2754
upperback 4.29755 -12.2497 9.75041
thorax 0.254719 -5.6552 5.65554
lowerneck -4.27096 15.9502 1.87182
upperneck 0.301144 21.9056 -12.0046
head 2.53547 10.9165 -3.16875
rclavicle 9.22361e-014 -1.24042e-013
rhumerus -18.1989 12.4452 -36.8997
rradius 91.2668
rwrist -201.068
rhand -19.5073 -3.14858
rfingers 7.12502
rthumb 6.81548 -33.0189
lclavicle 9.22361e-014 -1.24042e-013
lhumerus 10.757 -22.8843 26.2152
lradius 80.6882
lwrist 195.888
lhand -15.233 35.2891
lfingers 7.12502
lthumb 10.94 64.9841
rfemur -4.05526 5.06552 -1.98647
rtibia 36.4701
rfoot -21.3181 2.96599
rtoes -27.6173
lfemur 3.78767 7.67342 -2.35527
ltibia 18.0873
lfoot 4.98056 10.9672
ltoes -33.6528
1278
root -1.18019 16.9435 -6.43558 152.983 73.4291 -199.374
lowerback 7.65866 -10.7013 10.4085
upperback 4.26925 -12.4605 9.95812
thorax 0.359092 -5.75103 5.79727
lowerneck -4.2165 15.9926 1.90849
upperneck 0.307968 21.9808 -12.2128
head 2.56853 10.9558 -3.23658
rclavicle -2.22639e-014 7.95139e-014
rhumerus -18.2381 12.0301 -35.0037
rradius 90.3056
rwrist -201.485
rhand -20.2213 -2.67215
rfingers 7.12502
rthumb 6.12614 -32.5636
lclavicle -2.22639e-014 7.95139e-014
lhumerus 9.32758 -22.4183 25.1724
lradius 77.6991
lwrist 194.287
lhand -14.2839 35.4521
lfingers 7.12502
lthumb 11.8554 65.0965
rfemur -3.99561 5.47263 -2.15715
rtibia 36.3171
rfoot -21.2013 2.77689
rtoes -27.6887
lfemur 3.54052 8.18172 -2.14694
ltibia 18.8075
lfoot 4.2992 10.3609
ltoes -34.7487
1279
root -1.18084 16.9141 -6.55264 153.274 73.6103 -199.065
lowerback 7.48027 -10.8645 10.5187
upperback 4.27822 -12.6789 10.1684
thorax 0.501229 -5.84904 5.95245
lowerneck -4.21415 16.0305 1.83721
upperneck 0.283142 22.0493 -12.3622
head 2.5775 10.9924 -3.26874
rclavicle 1.09729e-013 -6.04305e-014
rhumerus -18.2516 11.4668 -33.1319
rradius 89.4925
rwrist -201.842
rhand -20.8201 -2.2853
rfingers 7.12502
rthumb 5.54809 -32.1927
lclavicle 1.09729e-013 -6.04305e-014
lhumerus 7.94765 -22.009 24.2027
lradius 74.5396
lwrist 193.126
lhand -14.0616 34.6346
lfingers 7.12502
lthumb 12.0698 64.2665
rfemur -3.86848 5.93806 -2.323
rtibia 36.1536
rfoot -21.1091 2.52992
rtoes -27.8954
lfemur 3.34237 8.65187 -1.96801
ltibia 19.5852
lfoot 3.48105 9.81691
ltoes -35.7162
1280
root -1.18041 16.8835 -6.67248 153.576 73.7567 -198.689
lowerback 7.34661 -11.0411 10.6478
upperback 4.28772 -12.9066 10.3471
thorax 0.609397 -5.95145 6.07432
lowerneck -4.18254 16.0586 1.87382
upperneck 0.259315 22.1009 -12.5538
head 2.60031 11.0206 -3.33268
rclavicle -6.36111e-015 5.725e-014
rhumerus -18.3336 10.7416 -31.3335
rradius 88.956
rwrist -201.94
rhand -21.3655 -1.89242
rfingers 7.12502
rthumb 5.02143 -31.8129
lclavicle -6.36111e-015 5.725e-014
lhumerus 6.55104 -21.6764 23.2985
lradius 71.0625
lwrist 192.049
lhand -12.8159 34.0049
lfingers 7.12502
lthumb 13.2707 63.5624
rfemur -3.64389 6.54876 -2.44262
rtibia 35.9687
rfoot -20.9797 2.09957
rtoes -28.0845
lfemur 3.15835 9.21174 -1.7715
ltibia 20.4362
lfoot 2.59218 9.16346
ltoes -36.7932
1281
root -1.1774 16.8531 -6.79561 153.798 73.9067 -198.362
lowerback 7.20486 -11.2091 10.788
upperback 4.30983 -13.1279 10.499
thorax 0.726963 -6.04992 6.1586
lowerneck -4.13748 16.0733 1.9021
upperneck 0.229162 22.1303 -12.7068
head 2.61039 11.0385 -3.38704
rclavicle 1.06549e-013 -2.03555e-013
rhumerus -18.5151 9.8944 -29.5691
rradius 88.6962
rwrist -201.743
rhand -21.7782 -1.52222
rfingers 7.12502
rthumb 4.62296 -31.4518
lclavicle 1.06549e-013 -2.03555e-013
lhumerus 5.11784 -21.3035 22.509
lradius 67.1399
lwrist 191.235
lhand -10.9951 34.0079
lfingers 7.12502
lthumb 15.0252 63.4427
rfemur -3.35887 7.22006 -2.56897
rtibia 35.7511
rfoot -20.8314 1.59952
rtoes -28.3115
lfemur 3.00117 9.72816 -1.61505
ltibia 21.3653
lfoot 1.5838 8.56127
ltoes -37.4688
1282
root -1.17199 16.8225 -6.92426 154.045 74.0865 -197.994
lowerback 7.05593 -11.3677 10.9711
upperback 4.33818 -13.3354 10.6483
thorax 0.845143 -6.1393 6.21594
lowerneck -4.1337 16.0911 1.90346
upperneck 0.246717 22.1659 -12.802
head 2.6327 11.0561 -3.41346
rclavicle -1.08139e-013 1.04958e-013
rhumerus -18.7963 8.96291 -27.7832
rradius 88.6692
rwrist -201.424
rhand -22.077 -1.30026
rfingers 7.12502
rthumb 4.33446 -31.2359
lclavicle -1.08139e-013 1.04958e-013
lhumerus 3.69017 -20.7161 21.8662
lradius 63.0048
lwrist 190.843
lhand -9.82685 34.162
lfingers 7.12502
lthumb 16.1504 63.5092
rfemur -3.04598 7.92218 -2.6721
rtibia 35.4964
rfoot -20.6448 1.05521
rtoes -28.7452
lfemur 2.8445 10.2484 -1.46212
ltibia 22.3764
lfoot 0.477456 7.97643
ltoes -37.7905
1283
root -1.16428 16.7935 -7.05562 154.322 74.2624 -197.613
lowerback 6.84615 -11.496 11.1934
upperback 4.37 -13.5174 10.7622
thorax 0.981362 -6.21442 6.20146
lowerneck -4.13637 16.0879 1.94689
upperneck 0.278315 22.1637 -12.8158
head 2.65138 11.0534 -3.42227
rclavicle -5.08889e-014 -3.18055e-015
rhumerus -19.2457 7.73533 -26.1024
rradius 88.9577
rwrist -200.876
rhand -22.4265 -1.00451
rfingers 7.12502
rthumb 3.9969 -30.9468
lclavicle -5.08889e-014 -3.18055e-015
lhumerus 2.33589 -20.0798 21.3021
lradius 58.9836
lwrist 190.266
lhand -9.09186 33.6546
lfingers 7.12502
lthumb 16.858 62.9429
rfemur -2.72512 8.63293 -2.77328
rtibia 35.2097
rfoot -20.4342 0.485871
rtoes -29.0333
lfemur 2.64315 10.8072 -1.32031
ltibia 23.4615
lfoot -0.654917 7.35261
ltoes -37.955
